<svg xmlns="http://www.w3.org/2000/svg" x="0px" y="0px"
width="40" height="40"
viewBox="0 0 172 172"
style=" fill:#000000;"><g fill="none" fill-rule="nonzero" stroke="none" stroke-width="1" stroke-linecap="butt" stroke-linejoin="miter" stroke-miterlimit="10" stroke-dasharray="" stroke-dashoffset="0" font-family="none" font-weight="none" font-size="none" text-anchor="none" style="mix-blend-mode: normal"><path d="M0,172v-172h172v172z" fill="none"></path><g fill="#ffffff"><path d="M145.125,5.375c-11.85725,0 -21.5,9.64275 -21.5,21.5c0,11.85725 9.64275,21.5 21.5,21.5c11.85725,0 21.5,-9.64275 21.5,-21.5c0,-11.85725 -9.64275,-21.5 -21.5,-21.5zM145.125,37.625c-5.92863,0 -10.75,-4.82138 -10.75,-10.75c0,-5.92862 4.82137,-10.75 10.75,-10.75c5.92863,0 10.75,4.82138 10.75,10.75c0,5.92862 -4.82137,10.75 -10.75,10.75z"></path><path d="M145.125,64.5c-11.85725,0 -21.5,9.64275 -21.5,21.5c0,11.85725 9.64275,21.5 21.5,21.5c11.85725,0 21.5,-9.64275 21.5,-21.5c0,-11.85725 -9.64275,-21.5 -21.5,-21.5zM145.125,96.75c-5.92863,0 -10.75,-4.82137 -10.75,-10.75c0,-5.92863 4.82137,-10.75 10.75,-10.75c5.92863,0 10.75,4.82138 10.75,10.75c0,5.92863 -4.82137,10.75 -10.75,10.75z"></path><path d="M145.125,123.625c-11.85725,0 -21.5,9.64275 -21.5,21.5c0,11.85725 9.64275,21.5 21.5,21.5c11.85725,0 21.5,-9.64275 21.5,-21.5c0,-11.85725 -9.64275,-21.5 -21.5,-21.5zM145.125,155.875c-5.92863,0 -10.75,-4.82137 -10.75,-10.75c0,-5.92863 4.82137,-10.75 10.75,-10.75c5.92863,0 10.75,4.82137 10.75,10.75c0,5.92863 -4.82137,10.75 -10.75,10.75z"></path><path d="M86,48.375c11.85725,0 21.5,-9.64275 21.5,-21.5c0,-11.85725 -9.64275,-21.5 -21.5,-21.5c-11.85725,0 -21.5,9.64275 -21.5,21.5c0,11.85725 9.64275,21.5 21.5,21.5zM86,16.125c5.92863,0 10.75,4.82138 10.75,10.75c0,5.92862 -4.82137,10.75 -10.75,10.75c-5.92863,0 -10.75,-4.82138 -10.75,-10.75c0,-5.92862 4.82138,-10.75 10.75,-10.75z"></path><path d="M86,107.5c11.85725,0 21.5,-9.64275 21.5,-21.5c0,-11.85725 -9.64275,-21.5 -21.5,-21.5c-11.85725,0 -21.5,9.64275 -21.5,21.5c0,11.85725 9.64275,21.5 21.5,21.5zM86,75.25c5.92863,0 10.75,4.82138 10.75,10.75c0,5.92863 -4.82137,10.75 -10.75,10.75c-5.92863,0 -10.75,-4.82137 -10.75,-10.75c0,-5.92863 4.82138,-10.75 10.75,-10.75z"></path><path d="M86,166.625c11.85725,0 21.5,-9.64275 21.5,-21.5c0,-11.85725 -9.64275,-21.5 -21.5,-21.5c-11.85725,0 -21.5,9.64275 -21.5,21.5c0,11.85725 9.64275,21.5 21.5,21.5zM86,134.375c5.92863,0 10.75,4.82137 10.75,10.75c0,5.92863 -4.82137,10.75 -10.75,10.75c-5.92863,0 -10.75,-4.82137 -10.75,-10.75c0,-5.92863 4.82138,-10.75 10.75,-10.75z"></path><path d="M26.875,48.375c11.85725,0 21.5,-9.64275 21.5,-21.5c0,-11.85725 -9.64275,-21.5 -21.5,-21.5c-11.85725,0 -21.5,9.64275 -21.5,21.5c0,11.85725 9.64275,21.5 21.5,21.5zM26.875,16.125c5.92862,0 10.75,4.82138 10.75,10.75c0,5.92862 -4.82138,10.75 -10.75,10.75c-5.92862,0 -10.75,-4.82138 -10.75,-10.75c0,-5.92862 4.82138,-10.75 10.75,-10.75z"></path><path d="M26.875,107.5c11.85725,0 21.5,-9.64275 21.5,-21.5c0,-11.85725 -9.64275,-21.5 -21.5,-21.5c-11.85725,0 -21.5,9.64275 -21.5,21.5c0,11.85725 9.64275,21.5 21.5,21.5zM26.875,75.25c5.92862,0 10.75,4.82138 10.75,10.75c0,5.92863 -4.82138,10.75 -10.75,10.75c-5.92862,0 -10.75,-4.82137 -10.75,-10.75c0,-5.92863 4.82138,-10.75 10.75,-10.75z"></path><path d="M26.875,166.625c11.85725,0 21.5,-9.64275 21.5,-21.5c0,-11.85725 -9.64275,-21.5 -21.5,-21.5c-11.85725,0 -21.5,9.64275 -21.5,21.5c0,11.85725 9.64275,21.5 21.5,21.5zM26.875,134.375c5.92862,0 10.75,4.82137 10.75,10.75c0,5.92863 -4.82138,10.75 -10.75,10.75c-5.92862,0 -10.75,-4.82137 -10.75,-10.75c0,-5.92863 4.82138,-10.75 10.75,-10.75z"></path></g></g></svg>