<svg xmlns="http://www.w3.org/2000/svg" x="0px" y="0px"
width="25" height="25"
viewBox="0 0 172 172"
style=" fill:#000000;"><g fill="none" fill-rule="nonzero" stroke="none" stroke-width="1" stroke-linecap="butt" stroke-linejoin="miter" stroke-miterlimit="10" stroke-dasharray="" stroke-dashoffset="0" font-family="none" font-weight="none" font-size="none" text-anchor="none" style="mix-blend-mode: normal"><path d="M0,172v-172h172v172z" fill="none"></path><g><path d="M114.66667,82.41667l-28.66667,-28.66667l28.66667,-28.66667z" fill="#e74c3c"></path><path d="M150.5,60.91667h-43v-14.33333h43z" fill="#e74c3c"></path><path d="M25.06542,31.72325l0.13617,13.416c0.48375,47.257 61.09225,101.22558 101.64125,101.64125l13.41958,0.13617c3.70517,0.03583 6.67575,-2.93475 6.63992,-6.63992l-0.27592,-26.832c-0.03942,-3.70517 -3.07092,-6.73667 -6.77608,-6.77608l-29.22925,-0.602l-14.36917,16.86317c-9.46717,-0.09675 -47.10292,-37.73608 -47.19967,-47.19967l16.86317,-15.351l-0.602,-28.24383c-0.03942,-3.70517 -3.07092,-6.73667 -6.77608,-6.77608l-26.832,-0.27592c-3.70517,-0.03583 -6.67575,2.93475 -6.63992,6.63992z" fill="#666666"></path></g></g></svg>