<svg xmlns="http://www.w3.org/2000/svg" x="0px" y="0px"
width="30" height="30"
viewBox="0 0 172 172"
style=" fill:#000000;"><g fill="none" fill-rule="nonzero" stroke="none" stroke-width="1" stroke-linecap="butt" stroke-linejoin="miter" stroke-miterlimit="10" stroke-dasharray="" stroke-dashoffset="0" font-family="none" font-weight="none" font-size="none" text-anchor="none" style="mix-blend-mode: normal"><path d="M0,172v-172h172v172z" fill="none"></path><g fill="#333333"><path d="M143.49817,110.99733c-4.515,-0.1075 -10.19817,-0.37267 -13.78867,-1.00333c-3.88433,-0.688 -8.557,-2.021 -11.8465,-3.04583c-2.58,-0.80267 -5.38933,-0.09317 -7.30283,1.81317l-15.8885,15.79533c-10.97933,-5.7835 -19.77283,-12.52017 -27.219,-20.00933c-7.48917,-7.44617 -14.22583,-16.23967 -20.00933,-27.219l15.79533,-15.89567c1.90633,-1.9135 2.61583,-4.72283 1.81317,-7.30283c-1.01767,-3.28233 -2.35783,-7.955 -3.03867,-11.83933c-0.63783,-3.5905 -0.89583,-9.27367 -1.0105,-13.78867c-0.09317,-3.90583 -3.27517,-7.00183 -7.181,-7.00183h-25.155c-3.139,0 -7.16667,2.35067 -7.16667,7.16667c0,32.5295 13.18667,63.597 35.58967,86.24367c22.64667,22.403 53.71417,35.58967 86.24367,35.58967c4.816,0 7.16667,-4.02767 7.16667,-7.16667v-25.155c0,-3.90583 -3.096,-7.08783 -7.00183,-7.181z"></path></g></g></svg>