<svg xmlns="http://www.w3.org/2000/svg" x="0px" y="0px"
width="30" height="30"
viewBox="0 0 172 172"
style=" fill:#000000;"><g fill="none" fill-rule="nonzero" stroke="none" stroke-width="1" stroke-linecap="butt" stroke-linejoin="miter" stroke-miterlimit="10" stroke-dasharray="" stroke-dashoffset="0" font-family="none" font-weight="none" font-size="none" text-anchor="none" style="mix-blend-mode: normal"><path d="M0,172v-172h172v172z" fill="none"></path><g fill="#666666"><path d="M142.13415,151.50781c-1.85505,0 -3.35937,-1.50433 -3.35937,-3.35937c0,-29.09991 -23.67486,-52.77477 -52.77477,-52.77477c-29.10025,0 -52.77477,23.67486 -52.77477,52.77477c0,1.85505 -1.50399,3.35938 -3.35938,3.35938c-1.85538,0 -3.35937,-1.50433 -3.35937,-3.35937c0,-32.80463 26.68855,-59.49352 59.49352,-59.49352c32.80497,0 59.49352,26.68889 59.49352,59.49352c0,1.85505 -1.50433,3.35938 -3.35937,3.35938zM86,75.32592c-15.11752,0 -27.41687,-12.29901 -27.41687,-27.41687c0,-15.11786 12.29934,-27.41687 27.41687,-27.41687c15.11786,0 27.41687,12.29901 27.41687,27.41687c0,15.11786 -12.29901,27.41687 -27.41687,27.41687zM86,27.21094c-11.41314,0 -20.69812,9.28498 -20.69812,20.69812c0,11.41314 9.28498,20.69812 20.69812,20.69812c11.41314,0 20.69812,-9.28498 20.69812,-20.69812c0,-11.41314 -9.28498,-20.69812 -20.69812,-20.69812z"></path></g></g></svg>